<svg width="11" height="11" viewBox="0 0 11 11" fill="none" xmlns="http://www.w3.org/2000/svg">
<path d="M10.7727 8.08172V9.70672C10.7733 9.85757 10.7424 10.0069 10.682 10.1451C10.6216 10.2833 10.5329 10.4074 10.4218 10.5094C10.3106 10.6114 10.1794 10.689 10.0365 10.7374C9.89356 10.7857 9.74214 10.8036 9.5919 10.7901C7.9251 10.6089 6.32402 10.0394 4.91731 9.12714C3.60855 8.2955 2.49895 7.1859 1.66731 5.87714C0.751885 4.46404 0.182195 2.85517 0.00439655 1.18089C-0.00913943 1.0311 0.00866213 0.880131 0.0566676 0.737599C0.104673 0.595067 0.181831 0.464092 0.283228 0.353014C0.384626 0.241935 0.508041 0.153187 0.645617 0.0924186C0.783192 0.0316504 0.931914 0.00019415 1.08231 5.25159e-05H2.70731C2.97019 -0.00253473 3.22503 0.0905534 3.42435 0.261966C3.62367 0.433379 3.75386 0.671419 3.79065 0.931719C3.85923 1.45176 3.98643 1.96236 4.16981 2.4538C4.24269 2.64768 4.25846 2.85838 4.21526 3.06095C4.17206 3.26351 4.0717 3.44945 3.92606 3.59672L3.23815 4.28464C4.00924 5.64072 5.13206 6.76354 6.48815 7.53464L7.17606 6.84672C7.32334 6.70108 7.50927 6.60072 7.71184 6.55752C7.9144 6.51432 8.1251 6.53009 8.31898 6.60297C8.81042 6.78635 9.32103 6.91355 9.84106 6.98214C10.1042 7.01926 10.3445 7.15179 10.5163 7.35453C10.688 7.55727 10.7793 7.81607 10.7727 8.08172Z" fill="#1E7B32"/>
</svg>
