<svg width="368" height="321" viewBox="0 0 368 321" fill="none" xmlns="http://www.w3.org/2000/svg">
<path d="M367.285 219.796C373.819 155.337 273.749 17.2535 206.676 85.5812C171.372 121.561 85.4708 163.38 22.4035 184.796C-38.9211 205.62 87.7724 309.34 183.013 319.005C278.253 328.669 360.745 284.254 367.285 219.796Z" fill="black"/>
<path opacity="0.7" d="M367.285 219.796C373.819 155.337 273.749 17.2535 206.676 85.5812C171.372 121.561 85.4708 163.38 22.4035 184.796C-38.9211 205.62 87.7724 309.34 183.013 319.005C278.253 328.669 360.745 284.254 367.285 219.796Z" fill="#FFF4F2"/>
<path d="M51.8816 267.87C55.5554 267.87 55.5609 262.157 51.8816 262.157C48.2024 262.157 48.1968 267.87 51.8816 267.87Z" fill="black"/>
<path d="M17.9715 136.91C21.6452 136.91 21.6507 131.198 17.9715 131.198C14.2922 131.198 14.2867 136.91 17.9715 136.91Z" fill="black"/>
<path d="M75.9215 54.423C79.5953 54.423 79.6008 48.7051 75.9215 48.7051C72.2423 48.7051 72.2423 54.423 75.9215 54.423Z" fill="black"/>
<path d="M75.9215 54.423C79.5953 54.423 79.6008 48.7051 75.9215 48.7051C72.2423 48.7051 72.2423 54.423 75.9215 54.423Z" fill="black"/>
<path d="M2.76774 264.632C6.44146 264.632 6.45253 258.919 2.76774 258.919C-0.917045 258.919 -0.928111 264.632 2.76774 264.632Z" fill="black"/>
<path d="M180.279 5.71796C183.953 5.71796 183.958 0 180.279 0C176.6 0 176.594 5.71796 180.279 5.71796Z" fill="black"/>
<path d="M143.763 225.126C147.437 225.126 147.443 219.414 143.763 219.414C140.084 219.414 140.079 225.126 143.763 225.126Z" fill="black"/>
<path d="M46.1 114.071C49.7737 114.071 49.7793 108.359 46.1 108.359C42.4208 108.359 42.4318 114.071 46.1 114.071Z" fill="black"/>
<path d="M71.451 295.629C75.1247 295.629 75.1302 289.911 71.451 289.911C67.7717 289.911 67.7662 295.629 71.451 295.629Z" fill="black"/>
<path d="M270.872 270.455C274.545 270.455 274.551 264.742 270.872 264.742C267.192 264.742 267.192 270.455 270.872 270.455Z" fill="black"/>
<path d="M281.495 47.2216C285.174 47.2216 285.18 41.5092 281.495 41.5092C277.81 41.5092 277.816 47.2216 281.495 47.2216Z" fill="black"/>
<path d="M356.751 225.126C360.424 225.126 360.43 219.414 356.751 219.414C353.071 219.414 353.071 225.126 356.751 225.126Z" fill="black"/>
<path d="M62.5545 227.025C64.3914 227.025 64.3914 224.169 62.5545 224.169C60.7177 224.169 60.7121 227.025 62.5545 227.025Z" fill="black"/>
<path d="M244.486 18.2665C246.323 18.2665 246.329 15.4103 244.486 15.4103C242.644 15.4103 242.649 18.2665 244.486 18.2665Z" fill="black"/>
<path d="M198.294 113.446C200.131 113.446 200.131 110.59 198.294 110.59C196.457 110.59 196.451 113.446 198.294 113.446Z" fill="black"/>
<path d="M221.874 233.191C223.711 233.191 223.716 230.335 221.874 230.335C220.032 230.335 220.032 233.191 221.874 233.191Z" fill="black"/>
<path d="M168.423 308.261C170.26 308.261 170.265 305.405 168.423 305.405C166.58 305.405 166.586 308.261 168.423 308.261Z" fill="black"/>
<path d="M331.859 306.207C333.696 306.207 333.696 303.351 331.859 303.351C330.022 303.351 330.017 306.207 331.859 306.207Z" fill="black"/>
<path d="M200.291 169.424C202.128 169.424 202.128 166.568 200.291 166.568C198.454 166.568 198.448 169.424 200.291 169.424Z" fill="black"/>
<path d="M117.384 12.5707C119.221 12.5707 119.226 9.71448 117.384 9.71448C115.541 9.71448 115.541 12.5707 117.384 12.5707Z" fill="black"/>
<path d="M20.7269 201.69C22.5637 201.69 22.5693 198.833 20.7269 198.833C18.8845 198.833 18.89 201.69 20.7269 201.69Z" fill="black"/>
<path d="M196.036 45.1127C197.873 45.1127 197.873 42.2565 196.036 42.2565C194.2 42.2565 194.194 45.1127 196.036 45.1127Z" fill="black"/>
<path d="M359.506 57.556C361.348 57.556 361.348 54.6998 359.506 54.6998C357.663 54.6998 357.669 57.556 359.506 57.556Z" fill="black"/>
<path d="M124.925 212.982C126.762 212.982 126.767 210.125 124.925 210.125C123.082 210.125 123.088 212.982 124.925 212.982Z" fill="black"/>
<path d="M278.12 192.246C279.957 192.246 279.957 189.39 278.12 189.39C276.283 189.39 276.278 192.246 278.12 192.246Z" fill="black"/>
<path d="M305.65 14.032C307.487 14.032 307.493 11.1758 305.65 11.1758C303.808 11.1758 303.813 14.032 305.65 14.032Z" fill="black"/>
<path d="M357.509 278.165C359.345 278.165 359.345 275.309 357.509 275.309C355.672 275.309 355.666 278.165 357.509 278.165Z" fill="black"/>
<path d="M153.319 44.6809V52.5964L149.285 54.3234C149.285 54.3234 150.585 74.339 160.179 69.086C169.773 63.833 172.351 55.0098 170.298 54.3234L167.421 52.5964L167.078 45.0628L153.319 44.6809Z" fill="#FED4C0"/>
<path d="M261.195 83.9705L228.619 88.991C227.146 89.2164 225.641 89.1081 224.215 88.6741C222.789 88.2401 221.479 87.4915 220.381 86.4835C204.695 72.0032 194.333 64.7575 188.036 61.1429C182.393 57.9103 170.453 53.8253 170.453 53.8253L170.575 54.4341L170.332 54.3345C159.139 77.6436 149.307 54.3345 149.307 54.3345C149.307 54.3345 137.368 58.414 131.724 61.6522C125.428 65.2667 115.065 72.5069 99.3802 86.9928C98.2803 88.0014 96.968 88.7499 95.5401 89.1829C94.1123 89.616 92.6055 89.7226 91.1309 89.4947L58.5543 84.4797L52.0479 101.047L89.6703 111.105C92.3509 111.821 95.1543 111.95 97.8896 111.485C100.625 111.02 103.228 109.971 105.522 108.409L129.644 91.9302L129.749 91.576C130.247 110.042 131.675 130.218 131.675 130.218L132.128 139.357H187.406L187.433 138.847H187.533L187.987 129.709C187.987 129.709 189.414 109.533 189.912 91.0667L190.017 91.421L214.228 107.922C216.522 109.484 219.125 110.533 221.86 110.998C224.595 111.463 227.399 111.333 230.079 110.617L267.702 100.56L261.195 83.9705Z" fill="#242424"/>
<path d="M173.906 27.3056C173.906 16.0081 167.875 6.85272 160.428 6.85272C152.981 6.85272 146.95 16.0081 146.95 27.3333H146.867C146.206 27.3076 145.547 27.4288 144.937 27.6883C144.328 27.9478 143.784 28.3391 143.344 28.8342C142.904 29.3292 142.579 29.9156 142.393 30.5512C142.206 31.1869 142.163 31.8559 142.266 32.5103C142.369 33.1647 142.615 33.7882 142.988 34.3358C143.36 34.8835 143.849 35.3418 144.42 35.6777C144.991 36.0137 145.629 36.219 146.288 36.2788C146.948 36.3386 147.612 36.2515 148.234 36.0237C150.392 42.9484 155.022 47.753 160.406 47.753C165.789 47.753 170.409 42.9595 172.578 36.0514C173.192 36.2413 173.84 36.2964 174.478 36.2128C175.116 36.1292 175.728 35.9089 176.273 35.567C176.818 35.2251 177.282 34.7697 177.635 34.2317C177.988 33.6937 178.22 33.0859 178.317 32.4498C178.414 31.8137 178.372 31.1642 178.195 30.5457C178.017 29.9272 177.709 29.3542 177.29 28.8659C176.871 28.3776 176.352 27.9854 175.768 27.7161C175.184 27.4469 174.549 27.3068 173.906 27.3056Z" fill="#FED4C0"/>
<path d="M148.416 31.3022C148.416 31.3022 147.614 15.5432 153.213 12.1057C153.213 12.1057 155.266 9.47648 161.092 15.6483C166.918 21.8202 172.577 18.5101 172.577 18.5101C172.577 18.5101 173.999 29.1323 173.086 31.3022C173.086 31.3022 181.308 17.248 172.284 10.0522C163.26 2.85626 158.353 5.36375 151.155 10.0522C151.155 10.0522 137.677 11.6685 148.416 31.3022Z" fill="#242424"/>
<path d="M153.789 45.1127C155.67 46.3353 157.835 47.0538 160.074 47.1995C161.171 47.2507 162.268 47.1179 163.321 46.8065C163.864 46.6552 164.396 46.4703 164.915 46.2529C165.468 46.0426 165.933 45.7548 166.486 45.5389C166.062 45.9386 165.611 46.3085 165.136 46.646C164.641 46.9771 164.115 47.2589 163.565 47.4873C162.451 47.9634 161.245 48.1828 160.035 48.1294C158.826 48.0775 157.641 47.776 156.555 47.2438C155.493 46.736 154.551 46.0098 153.789 45.1127Z" fill="#F9C0AA"/>
<path d="M133.755 139.335V296.559H154.768L157.507 159.444H162.99L173.496 296.559H194.51L185.375 139.335H133.755Z" fill="black"/>
<path d="M178.066 302.045C178.066 302.045 172.357 318.042 177.153 320.311H181.95C181.95 320.311 184.23 313.912 187.428 320.311H216.668C216.668 320.311 218.494 315.285 211.412 312.999C204.33 310.713 192.457 302.028 192.457 302.028L178.066 302.045Z" fill="black"/>
<path d="M177.153 296.559L178.066 302.045H192.457V296.559H177.153Z" fill="#FED4C0"/>
<path d="M151.221 302.045C151.221 302.045 156.931 318.042 152.134 320.311H147.348C147.348 320.311 145.063 313.912 141.865 320.311H112.63C112.63 320.311 110.805 315.285 117.881 312.999C124.957 310.713 136.836 302.045 136.836 302.045H151.221Z" fill="black"/>
<path d="M152.145 296.559L151.232 302.045H136.842V296.559H152.145Z" fill="#FED4C0"/>
<g opacity="0.2">
<path d="M164.882 159.057C163.354 159.391 161.793 159.549 160.229 159.527C158.665 159.552 157.103 159.394 155.576 159.057C157.103 158.715 158.664 158.555 160.229 158.581C161.793 158.558 163.354 158.718 164.882 159.057Z" fill="black"/>
</g>
<g opacity="0.2">
<path d="M133.279 112.018C133.489 113.473 133.813 114.909 134.247 116.313C134.441 117.022 134.701 117.708 134.928 118.4L135.757 120.426C136.939 123.084 138.527 125.542 140.466 127.71C142.379 129.896 144.646 131.745 147.171 133.179C148.423 133.93 149.733 134.58 151.089 135.122C152.433 135.714 153.855 136.069 155.249 136.6C154.53 136.451 153.805 136.296 153.086 136.124L151.979 135.875L151.426 135.748L150.9 135.565C149.487 135.092 148.112 134.509 146.79 133.821C144.103 132.468 141.704 130.607 139.724 128.341C137.73 126.101 136.159 123.516 135.088 120.714C133.98 117.944 133.368 115 133.279 112.018Z" fill="black"/>
</g>
<g opacity="0.2">
<path d="M139.852 114.564C140.358 115.946 140.973 117.286 141.688 118.572C142.026 119.219 142.424 119.839 142.795 120.47L144.034 122.28C145.731 124.633 147.782 126.707 150.115 128.43C152.457 130.173 155.075 131.509 157.861 132.382C159.242 132.861 160.659 133.231 162.099 133.489C163.532 133.788 165.009 133.838 166.475 134.07C165.734 134.07 164.998 134.07 164.262 134.07H163.155H162.602L162.049 133.999C160.568 133.835 159.102 133.552 157.667 133.152C154.759 132.39 152.026 131.074 149.617 129.277C147.192 127.499 145.108 125.297 143.464 122.778C141.787 120.274 140.564 117.493 139.852 114.564Z" fill="black"/>
</g>
<g opacity="0.2">
<path d="M180.274 76.4259H164.129V96.5744H180.274V76.4259Z" fill="black"/>
</g>
<path d="M319.698 44.6588V53.5153L323.344 54.3124C323.344 54.3124 322.431 74.3114 312.832 69.0529C303.233 63.7943 300.267 54.9987 302.32 54.3124L305.518 53.2828L305.927 45.0297L319.698 44.6588Z" fill="#B86A4B"/>
<path d="M299.133 27.2835C299.133 15.9859 305.164 6.83057 312.611 6.83057C320.058 6.83057 326.083 15.9859 326.083 27.2835H326.172C327.36 27.2835 328.5 27.7559 329.34 28.5967C330.181 29.4375 330.653 30.578 330.653 31.7671C330.653 32.9562 330.181 34.0966 329.34 34.9375C328.5 35.7783 327.36 36.2507 326.172 36.2507C325.698 36.2468 325.229 36.1645 324.783 36.0071C322.625 42.9318 317.989 47.7364 312.611 47.7364C307.233 47.7364 302.602 42.9429 300.439 36.0348C299.824 36.2219 299.177 36.2743 298.54 36.1885C297.904 36.1026 297.293 35.8806 296.75 35.5375C296.207 35.1944 295.745 34.7382 295.394 34.2001C295.043 33.662 294.812 33.0545 294.716 32.4191C294.621 31.7836 294.664 31.1351 294.842 30.5176C295.02 29.9002 295.328 29.3283 295.747 28.841C296.166 28.3537 296.684 27.9623 297.268 27.6935C297.851 27.4248 298.485 27.2849 299.128 27.2835H299.133Z" fill="#B86A4B"/>
<path d="M324.6 31.2799C324.6 31.2799 325.402 15.5431 319.803 12.0835C319.803 12.0835 317.75 9.45426 311.924 15.6261C306.098 21.798 300.438 18.4879 300.438 18.4879C300.438 18.4879 299.017 29.1101 299.929 31.2799C299.929 31.2799 291.708 17.2258 300.732 10.0299C309.756 2.83405 314.663 5.34154 321.861 10.0299C321.861 10.0078 335.333 11.6296 324.6 31.2799Z" fill="#242424"/>
<path d="M319.228 45.0906C318.469 45.9964 317.526 46.7304 316.461 47.2438C315.377 47.7765 314.194 48.0781 312.987 48.1294C311.777 48.1829 310.571 47.9634 309.457 47.4874C308.906 47.2612 308.379 46.9793 307.886 46.646C307.411 46.3085 306.96 45.9386 306.536 45.5389C307.089 45.7548 307.581 46.0426 308.107 46.253C308.626 46.4712 309.158 46.6561 309.7 46.8065C310.753 47.1183 311.851 47.2511 312.948 47.1995C315.187 47.0463 317.35 46.3201 319.228 45.0906Z" fill="#B2593D"/>
<path d="M359.357 152.913L362.969 174.046C363.164 175.18 363.122 176.341 362.847 177.457C362.571 178.573 362.069 179.621 361.371 180.534L354.123 190.005C353.929 190.26 353.677 190.467 353.389 190.608C353.101 190.75 352.784 190.822 352.463 190.818C351.914 190.818 351.388 190.6 351 190.212C350.612 189.824 350.394 189.297 350.394 188.748C350.395 187.665 350.757 186.613 351.423 185.759L356.955 178.619C356.955 178.619 356.22 168.854 356.059 170.316L353.177 175.015C353.043 175.231 352.857 175.409 352.636 175.534C352.415 175.658 352.167 175.726 351.913 175.729C351.66 175.732 351.409 175.672 351.185 175.553C350.961 175.434 350.771 175.26 350.632 175.048C350.457 174.783 350.37 174.469 350.383 174.152C350.455 172.975 350.788 171.829 351.356 170.797L352.159 169.336C352.159 169.336 350.366 158.437 352.645 152.907L359.357 152.913Z" fill="#B86A4B"/>
<path d="M311.349 73.2209L313.773 81.3744L287.354 116.097C283.254 121.605 275.536 121.339 272.1 114.437C272.1 114.437 271.84 109.389 272.532 107.9C275.619 101.224 278.994 100.388 284.339 95.9046L311.349 73.2209Z" fill="#8C4D3E"/>
<path d="M312.301 74.173L314.724 82.3265L288.306 117.049C284.206 122.557 276.488 122.291 273.052 115.389C273.052 115.389 272.792 110.341 273.483 108.852C276.571 102.176 279.946 101.34 285.29 96.8566L312.301 74.173Z" fill="#8C4D3E"/>
<path d="M251.364 95.506C251.364 95.506 251.181 91.8417 245.477 86.096C239.773 80.3504 234.671 76.4535 237.665 81.308L240.005 84.9723C240.005 84.9723 233.919 82.6918 230.406 81.0146C229.481 80.5561 228.435 80.406 227.419 80.5863C226.403 80.7666 225.472 81.2678 224.762 82.0165C223.468 83.4501 223.523 85.0056 227.18 87.7123C232.657 91.7642 241.134 97.9305 242.777 98.5338C243.352 98.7497 251.364 95.506 251.364 95.506Z" fill="#B86A4B"/>
<path d="M285.428 139.335H340.473L340.932 130.196L348.678 161.747L363.063 159.461C359.107 112.964 349.923 82.8966 345.11 69.7448C344.244 67.377 342.896 65.215 341.151 63.3959C339.406 61.5769 337.303 60.1405 334.974 59.1779L323.316 54.34C323.316 54.34 313.496 77.6492 302.292 54.34L290.634 59.1779C285.926 61.1263 279.829 64.8239 278.081 69.6175C275.94 75.5513 271.834 88.6091 268.764 94.6647C268.56 95.0606 268.272 95.4072 267.921 95.68C267.569 95.9528 267.162 96.1453 266.728 96.244C266.294 96.3426 265.844 96.345 265.409 96.251C264.974 96.157 264.565 95.9688 264.21 95.6998L246.904 85.3709L240.265 98.2349L262.324 116.562C265.247 118.577 268.845 119.362 272.341 118.747C275.838 118.132 278.952 116.166 281.013 113.274L284.764 108.027L285.218 139.335H340.268" fill="#242424"/>
<path d="M243.579 86.6496C242.932 86.5045 242.305 86.2834 241.709 85.9909C241.111 85.7108 240.542 85.3714 240.011 84.9779C240.348 85.0066 240.68 85.0753 241.001 85.1827C241.315 85.2805 241.622 85.4007 241.92 85.5425C242.527 85.823 243.087 86.1965 243.579 86.6496Z" fill="#160B07"/>
<path d="M235.191 85.6256C234.419 85.3732 233.662 85.0775 232.923 84.7399C232.182 84.4133 231.462 84.0369 230.754 83.6328C230.043 83.2368 229.356 82.7987 228.696 82.321C228.029 81.8519 227.415 81.3118 226.865 80.7102C228.209 81.6235 229.592 82.4095 230.998 83.2011C232.403 83.9926 233.803 84.7731 235.191 85.6256Z" fill="#160B07"/>
<path d="M231.905 88.9301C231.182 88.7585 230.474 88.5309 229.786 88.2493C229.092 87.9774 228.416 87.6632 227.761 87.3083C226.434 86.6181 225.233 85.7086 224.209 84.6181C224.84 85.0222 225.454 85.4207 226.085 85.7916C226.715 86.1625 227.352 86.5278 227.999 86.8987L231.905 88.9301Z" fill="#160B07"/>
<path d="M233.709 87.502C232.849 87.2763 232.006 86.9914 231.186 86.6496C230.36 86.316 229.554 85.9334 228.773 85.5038C227.994 85.0761 227.254 84.5816 226.56 84.0259C225.836 83.4893 225.234 82.8043 224.795 82.0165C225.373 82.6775 226.044 83.2501 226.787 83.7159C227.517 84.1975 228.264 84.6513 229.039 85.0665C230.544 85.93 232.126 86.6939 233.709 87.502Z" fill="#160B07"/>
<path d="M254.285 292.779L256.249 304.231L270.385 314.687C270.385 314.687 253.787 320.682 245.377 311.77L247.087 303.888L243.147 293.775L254.285 292.779Z" fill="#8C4D3E"/>
<path d="M201.918 292.779L201.857 304.231L187.737 314.687C187.737 314.687 204.335 320.682 212.745 311.77L211.036 303.888L213.072 293.775L201.918 292.779Z" fill="#8C4D3E"/>
<path d="M227.573 125.734L220.646 138.133C215.861 146.707 212.652 156.07 211.169 165.777L192.009 295.856L262.501 293.775L266.501 170.393C266.975 159.391 264.921 148.427 260.498 138.344C258.536 133.777 255.907 129.528 252.697 125.734H227.573Z" fill="#242424"/>
<path d="M220.082 42.2122C220.198 43.823 220.812 43.8728 221.188 45.6662C221.741 48.2623 220.58 48.8047 221.127 50.886C221.443 52.065 221.847 51.9931 223.894 54.96C226.029 57.9989 225.553 57.9989 226.688 59.2166C228.668 61.3588 229.565 60.7499 231.811 63.0581C233.299 64.5859 233.128 65.084 234.771 66.5897C235.424 67.193 235.695 67.3314 238.24 69.0307C242.461 71.8427 242.721 72.1139 243.712 72.3519C245.252 72.6132 246.832 72.5012 248.321 72.0253C249.98 71.5991 250.03 71.2393 252.835 70.1654C255.64 69.0916 255.884 69.3628 256.941 68.6322C258.528 67.5251 258.191 66.8166 260.1 65.1394C261.898 63.5563 262.401 64.0323 263.458 62.726C264.814 61.0654 264.133 60.1521 265.527 58.7185C266.584 57.6114 267.215 57.9158 268.36 56.6759C269.112 55.8512 269.162 55.3807 269.915 53.9415C271.447 51.0133 272.128 51.3344 273.046 49.1922C273.539 48.0409 273.223 48.2401 274.203 44.6643C274.977 41.8247 275.121 41.8967 275.198 40.9834C275.42 38.2157 274.048 38.0386 274.546 36.0016C274.844 34.7783 275.652 33.4941 275.204 31.7671C274.756 28.54 274.424 26.1764 272.653 23.99C271.691 22.8054 271.547 23.1652 268.609 20.3035C266.767 18.4879 266.396 17.8901 265.123 17.1428C263.464 16.1631 263.187 16.5893 261.129 15.6151C258.462 14.3198 258.528 13.3622 256.387 12.6592C254.971 12.1998 254.96 12.6205 252.238 12.2164C248.785 11.7072 248.669 11.0097 246.932 11.1813C245.078 11.364 244.868 12.1998 242.185 12.9858C239.938 13.6445 239.59 12.9858 237.88 13.639C236.171 14.2922 236.298 14.9176 234.157 16.0468C231.623 17.3864 230.887 16.7886 229.703 17.9454C228.519 19.1023 229.117 19.8385 227.822 22.1301C226.76 24.0011 226.245 23.7298 224.502 26.1654C223.509 27.6072 222.641 29.1313 221.907 30.7209C220.967 32.5863 220.491 33.5439 220.375 34.5347C220.187 36.1344 220.729 36.306 220.64 38.3098C220.574 40.3911 219.965 40.5904 220.082 42.2122Z" fill="#242424"/>
<path d="M232.403 49.3472H232.453C232.768 40.2029 238.539 32.8575 245.847 32.697C253.156 32.5365 259.248 39.5995 259.978 48.7217H260.033C262.246 48.6719 264.072 50.6259 264.128 53.0835C264.183 55.5412 262.44 57.5782 260.255 57.6335C259.823 57.6334 259.394 57.5585 258.988 57.4121C257.466 61.9511 254.49 65.5103 250.777 67.0934L250.888 78.413L250.39 86.716L239.009 85.8857L239.241 78.6898L240.138 66.1025H240.171C237.269 64.1289 235.063 61.2891 233.869 57.9878C233.469 58.1558 233.041 58.2496 232.608 58.2646C230.395 58.3144 228.569 56.3604 228.513 53.9027C228.458 51.4451 230.195 49.4026 232.403 49.3472Z" fill="#8C4D3E"/>
<path d="M205.398 163.441L203.378 178.414C203.274 179.225 203.354 180.049 203.611 180.825C203.869 181.602 204.298 182.31 204.867 182.897L210.837 189.241C211.004 189.415 211.208 189.55 211.434 189.637C211.659 189.724 211.901 189.761 212.142 189.745C212.548 189.742 212.937 189.578 213.223 189.29C213.509 189.002 213.669 188.612 213.669 188.206C213.624 187.434 213.302 186.705 212.762 186.152L208.209 181.375C208.209 181.375 208.413 174.495 208.596 175.519L211.003 178.696C211.124 178.844 211.279 178.962 211.454 179.04C211.629 179.118 211.819 179.154 212.011 179.146C212.202 179.138 212.389 179.086 212.557 178.993C212.725 178.901 212.869 178.771 212.978 178.613C213.106 178.425 213.163 178.197 213.138 177.971C213.035 177.143 212.735 176.351 212.264 175.663L211.584 174.672C211.584 174.672 212.568 166.956 210.593 163.17L205.398 163.441Z" fill="#8C4D3E"/>
<path d="M208.59 114.011L204.507 170.526L211.428 167.41L220.242 119.109L208.59 114.011Z" fill="#8C4D3E"/>
<path d="M207.616 123.05L209.923 92.8934C210.115 90.3747 210.904 87.9379 212.222 85.7839C213.541 83.63 215.353 81.8207 217.509 80.5054C220.036 78.9556 222.776 77.7844 225.642 77.0292C230.081 75.9747 234.629 75.447 239.191 75.4572C239.191 75.4572 243.988 88.7142 250.838 75.4572L260.31 78.6455C263.027 79.5628 265.527 81.0292 267.654 82.9536C269.781 84.8781 271.491 87.2194 272.675 89.8323L282.9 106.654L274.761 116.618L261.007 107.097L252.708 125.734H227.573L222.04 106.654L220.015 123.05H207.616Z" fill="black"/>
<path d="M102.052 35.6418C101.499 44.7861 87.601 44.0112 88.0712 34.8613C88.5415 25.7115 102.534 26.492 102.052 35.6418Z" fill="#242424"/>
<path d="M70.444 37.0699C69.8907 46.2142 55.9926 45.4393 56.4628 36.2894C56.9331 27.1396 70.9198 27.9201 70.444 37.0699Z" fill="#242424"/>
<path d="M94.3176 51.5724H94.2678C94.2678 30.1231 69.1438 28.7393 66.7757 50.0447C60.7728 49.6129 61.492 60.5617 67.5061 58.7572C68.0593 64.3977 69.4812 67.9126 75.3127 70.4533C75.0029 74.8815 74.8369 83.8985 75.1191 88.3268L86.5275 87.8729L86.9425 80.4058L86.1015 70.2872C90.8098 69.0971 92.4807 62.1946 92.5748 60.1466C98.3288 62.5932 100.282 51.899 94.3176 51.5724Z" fill="#B86A4B"/>
<path d="M76.7178 71.3168C79.4565 71.3168 81.9462 71.5714 84.5742 70.8076C82.5603 72.8224 79.0636 72.6619 76.7178 71.3168Z" fill="#B2593D"/>
<path d="M70.5937 42.8156C74.7266 42.8764 74.0627 39.7988 74.5883 37.2803C74.5883 37.2803 77.0448 42.9595 81.9302 37.6899C83.0367 36.4887 82.4171 45.5445 88.1213 39.2231C89.5709 37.8338 90.8876 45.9984 93.4106 45.55L93.3275 53.6481C109.887 23.1154 47.1239 20.8792 68.1703 54.8216C68.1703 54.8438 65.9351 42.7491 70.5937 42.8156Z" fill="#242424"/>
<path d="M78.8816 30.7486L76.8898 27.981C76.8898 27.981 72.1427 28.4902 74.898 26.7521C77.6533 25.014 78.1789 26.42 78.1457 26.9348L78.8816 30.7486Z" fill="#242424"/>
<path d="M120.487 165.312C120.327 168.849 124.504 182.073 121.041 184.768L115.065 191.112C112.764 192.916 111.225 189.634 113.14 188.017L117.721 183.241C117.721 183.241 117.516 176.366 117.334 177.384L114.927 180.561C114.302 181.43 112.686 180.954 112.791 179.842C112.885 178.641 113.649 177.506 114.346 176.521C114.346 176.521 113.361 168.804 115.336 165.018L120.487 165.312Z" fill="#B86A4B"/>
<path d="M117.3 115.876L121.378 172.391L114.457 169.275L105.643 120.98L117.3 115.876Z" fill="#B86A4B"/>
<path d="M100.118 138.317L99.2075 138.593L99.3451 139.048L100.256 138.773L100.118 138.317Z" fill="#200100"/>
<path d="M103.396 152.47L103.103 151.512L104.016 151.235L104.304 152.193L103.396 152.47ZM102.815 150.555L102.528 149.597L103.435 149.32L103.728 150.278L102.815 150.555ZM102.234 148.639L101.947 147.682L102.854 147.405L103.147 148.363L102.234 148.639ZM101.681 146.724L101.394 145.767L102.301 145.49L102.594 146.447L101.681 146.724ZM101.1 144.809L100.813 143.851L101.725 143.575L101.98 144.516L101.1 144.809ZM100.519 142.894L100.232 141.936L101.145 141.659L101.432 142.617L100.519 142.894ZM99.9661 140.979L99.6729 140.021L100.586 139.744L100.873 140.702L99.9661 140.979Z" fill="#200100"/>
<path d="M104.949 153.892L104.035 154.168L104.173 154.625L105.087 154.349L104.949 153.892Z" fill="#200100"/>
<path d="M118.268 124.915C114.949 98.5339 123.248 77.6547 86.6765 77.3115C86.6765 77.3115 81.8797 90.563 75.0578 77.3115L65.6024 80.4943C54.6975 83.3837 49.0043 100.305 43.0234 108.503V128.341L64.9053 108.968L73.2099 127.6H98.3284L103.861 108.52L105.886 124.915H118.268Z" fill="black"/>
<g opacity="0.2">
<path d="M59.7271 98.5726C62.0158 101.719 63.7572 105.23 64.878 108.957C62.5861 105.812 60.8443 102.301 59.7271 98.5726Z" fill="black"/>
</g>
<g opacity="0.2">
<path d="M103.878 108.536C104.595 103.913 105.956 99.4131 107.922 95.1684C107.206 99.7916 105.844 104.291 103.878 108.536Z" fill="black"/>
</g>
<path d="M39.6824 73.243L32.5507 77.8816L30.1606 121.45C30.0605 122.983 30.4031 124.513 31.1476 125.857C31.8921 127.201 33.007 128.303 34.3596 129.031C35.7123 129.759 37.2455 130.082 38.7768 129.963C40.308 129.844 41.7728 129.287 42.9965 128.358C50.355 115.444 41.0213 86.8765 39.6824 73.243Z" fill="#B86A4B"/>
<path d="M40.3958 80.9593C40.3958 80.9593 42.2714 78.1917 41.2976 70.9349C40.3239 63.6781 38.7802 58.0376 38.2768 63.1855L37.9614 67.1211C37.9614 67.1211 34.8078 62.1393 33.1922 58.9897C31.0344 55.2755 24.6497 55.27 27.1948 62.0618C28.9265 67.9901 31.6652 77.0957 32.5228 78.4352C32.8215 78.9002 40.3958 80.9593 40.3958 80.9593Z" fill="#B86A4B"/>
<path d="M39.6212 70.2817C38.8579 69.3527 38.293 68.277 37.9614 67.121C38.8239 67.9806 39.403 69.0835 39.6212 70.2817Z" fill="#B2593D"/>
<path d="M105.3 304.037C107.071 269.597 110.435 190.359 109.726 156.677C112.288 161.105 110.368 150.101 105.881 140.071C103.931 135.499 101.311 131.244 98.1076 127.445H72.9725C65.8575 139.672 58.2832 153.272 56.568 167.493L39.0238 295.662L37.5908 304.037L23.4492 314.494C23.4492 314.494 40.0474 320.494 48.4626 311.576L46.753 303.694L83.9052 158.298H85.2662L96.1435 303.694L94.4339 311.576C102.827 320.494 119.447 314.494 119.447 314.494L105.3 304.037Z" fill="#B86A4B"/>
<path d="M124.924 320.322C124.924 320.322 106.251 320.671 101.797 316.447V320.322H93.5758C93.5758 320.322 90.9921 306.561 95.3684 307.27C99.7448 307.978 115.319 319.868 115.668 311.698C118.899 313.569 125.538 315.44 124.924 320.322Z" fill="#242424"/>
<path d="M73.0774 127.445L66.1505 139.849C52.0863 161.802 53.5027 192.756 49.9341 211.531H110.562C110.932 185.56 117.516 148.54 98.2015 127.423L73.0774 127.445Z" fill="#242424"/>
<path d="M17.9715 320.322C17.9715 320.322 36.6444 320.671 41.0982 316.447V320.322H49.3198C49.3198 320.322 51.9036 306.561 47.5272 307.27C43.1509 307.978 27.5763 319.868 27.2277 311.698C23.9966 313.569 17.3574 315.44 17.9715 320.322Z" fill="#242424"/>
<path d="M249.3 67.6081C248.691 67.9521 248.029 68.1916 247.341 68.3166C246.657 68.4542 245.958 68.5063 245.261 68.4716C244.555 68.4292 243.86 68.2818 243.197 68.0343C242.533 67.7794 241.938 67.3717 241.46 66.8442C242.14 67.038 242.76 67.204 243.396 67.3203C244.033 67.4365 244.669 67.4863 245.316 67.5251C246.611 67.5749 247.906 67.5749 249.3 67.6081Z" fill="#874032"/>
<g opacity="0.2">
<path d="M253.023 20.0157C252.836 20.017 252.65 19.9908 252.47 19.9382C251.192 19.5839 250.583 18.0949 250.556 18.0285C250.532 17.9707 250.521 17.9089 250.522 17.8467C250.522 17.7844 250.535 17.7229 250.56 17.6658C250.585 17.6086 250.621 17.5569 250.665 17.5137C250.71 17.4705 250.763 17.4367 250.821 17.4141C250.938 17.3665 251.069 17.3672 251.185 17.416C251.301 17.4648 251.393 17.5576 251.441 17.6742C251.441 17.6742 251.906 18.7813 252.73 19.0248C252.981 19.0687 253.239 19.0541 253.484 18.9821C253.729 18.9101 253.953 18.7827 254.141 18.6097C254.19 18.5718 254.247 18.5441 254.307 18.5283C254.368 18.5124 254.431 18.5088 254.492 18.5176C254.554 18.5263 254.614 18.5473 254.667 18.5793C254.721 18.6112 254.768 18.6536 254.805 18.7038C254.843 18.7538 254.871 18.8109 254.886 18.8718C254.902 18.9326 254.906 18.996 254.897 19.0583C254.889 19.1206 254.868 19.1805 254.836 19.2346C254.803 19.2887 254.761 19.3359 254.711 19.3736C254.233 19.7664 253.641 19.9919 253.023 20.0157Z" fill="black"/>
</g>
<g opacity="0.2">
<path d="M267.961 28.2135C267.189 28.1626 266.451 27.8746 265.848 27.3887C265.75 27.308 265.689 27.1917 265.677 27.0656C265.665 26.9395 265.704 26.8138 265.784 26.7162C265.865 26.6185 265.981 26.557 266.107 26.545C266.233 26.5331 266.359 26.5718 266.457 26.6525C266.457 26.6525 267.397 27.4219 268.233 27.206C268.476 27.1278 268.697 26.9933 268.879 26.8135C269.061 26.6337 269.197 26.4135 269.278 26.1709C269.332 26.0575 269.429 25.9697 269.546 25.9263C269.664 25.8829 269.794 25.8872 269.909 25.9384C270.023 25.9914 270.112 26.0876 270.156 26.2059C270.199 26.3242 270.194 26.4549 270.141 26.5695C270.003 26.947 269.777 27.2862 269.482 27.5586C269.186 27.8311 268.83 28.029 268.443 28.136C268.286 28.1806 268.124 28.2066 267.961 28.2135Z" fill="black"/>
</g>
<g opacity="0.2">
<path d="M258.877 32.8797C258.106 32.8296 257.37 32.5414 256.769 32.055C256.674 31.9733 256.614 31.8576 256.603 31.7325C256.591 31.6073 256.629 31.4827 256.708 31.3852C256.789 31.2884 256.905 31.2276 257.03 31.2162C257.156 31.2048 257.281 31.2437 257.378 31.3243C257.378 31.3243 258.324 32.0826 259.154 31.8778C259.396 31.7973 259.616 31.662 259.798 31.4825C259.979 31.303 260.116 31.0841 260.199 30.8427C260.256 30.7341 260.352 30.6513 260.468 30.6117C260.583 30.5721 260.71 30.5786 260.821 30.6299C260.932 30.6812 261.019 30.7733 261.064 30.8872C261.109 31.001 261.109 31.1278 261.063 31.2413C260.924 31.6192 260.697 31.9585 260.4 32.231C260.104 32.5035 259.747 32.7012 259.359 32.8078C259.202 32.8509 259.04 32.875 258.877 32.8797Z" fill="black"/>
</g>
<path d="M245.936 37.1308C245.165 37.0807 244.429 36.7925 243.828 36.306L244.437 35.5754C244.437 35.5754 245.377 36.3393 246.213 36.1289C246.455 36.0484 246.675 35.9131 246.856 35.7336C247.038 35.5541 247.175 35.3351 247.258 35.0938L248.122 35.4924C247.983 35.8708 247.757 36.2105 247.46 36.4831C247.164 36.7557 246.806 36.9531 246.417 37.0588C246.26 37.1019 246.099 37.1261 245.936 37.1308Z" fill="#560D0D"/>
<g opacity="0.2">
<path d="M264.188 42.2067C263.98 42.2071 263.773 42.1773 263.574 42.1181C262.307 41.7251 261.737 40.2195 261.715 40.1531C261.678 40.0365 261.687 39.9099 261.74 39.7998C261.794 39.6896 261.887 39.6043 262.002 39.5615C262.117 39.5188 262.243 39.5219 262.356 39.5702C262.468 39.6185 262.558 39.7083 262.606 39.8209C262.606 39.8209 263.043 40.928 263.862 41.2048C264.111 41.2594 264.37 41.2542 264.617 41.1898C264.864 41.1253 265.093 41.0034 265.284 40.8339C265.386 40.7605 265.514 40.7309 265.639 40.7517C265.763 40.7725 265.874 40.8418 265.948 40.9446C266.021 41.0474 266.051 41.1751 266.03 41.2997C266.009 41.4242 265.94 41.5354 265.837 41.6088C265.364 41.9766 264.787 42.1858 264.188 42.2067Z" fill="black"/>
</g>
<g opacity="0.2">
<path d="M240.63 17.2535C240.421 17.2556 240.214 17.2239 240.016 17.1594C238.749 16.772 238.173 15.2664 238.151 15.1999C238.129 15.1415 238.119 15.0792 238.121 15.0168C238.124 14.9543 238.138 14.893 238.165 14.8363C238.191 14.7796 238.228 14.7288 238.274 14.6867C238.321 14.6445 238.375 14.612 238.433 14.5911C238.552 14.5477 238.682 14.5523 238.797 14.6041C238.912 14.6558 239.002 14.7505 239.048 14.8678C239.048 14.8678 239.479 15.9749 240.298 16.2517C240.548 16.3024 240.806 16.2949 241.053 16.2296C241.299 16.1644 241.528 16.0431 241.72 15.8753C241.823 15.8018 241.952 15.7726 242.077 15.7938C242.202 15.8151 242.313 15.8852 242.387 15.9887C242.46 16.0922 242.489 16.2206 242.468 16.3457C242.447 16.4708 242.377 16.5823 242.273 16.6557C241.802 17.0227 241.227 17.2319 240.63 17.2535Z" fill="black"/>
</g>
<g opacity="0.2">
<path d="M227.152 30.2836C226.944 30.283 226.737 30.2513 226.538 30.1895C225.271 29.7965 224.701 28.2909 224.674 28.2245C224.63 28.1056 224.635 27.9741 224.688 27.8588C224.741 27.7436 224.837 27.6541 224.956 27.6101C225.075 27.566 225.206 27.571 225.321 27.624C225.437 27.6769 225.526 27.7735 225.57 27.8924C225.57 27.8924 226.002 28.9994 226.82 29.2817C227.07 29.3325 227.329 29.325 227.575 29.2597C227.822 29.1944 228.05 29.0732 228.242 28.9053C228.293 28.869 228.351 28.843 228.412 28.8289C228.473 28.8148 228.536 28.8128 228.597 28.8231C228.659 28.8334 228.718 28.8557 228.771 28.8888C228.824 28.9219 228.87 28.9652 228.906 29.016C228.943 29.0669 228.969 29.1245 228.983 29.1854C228.997 29.2463 228.999 29.3094 228.988 29.3711C228.978 29.4328 228.956 29.4918 228.923 29.5449C228.89 29.5979 228.847 29.6439 228.796 29.6803C228.325 30.0486 227.75 30.2596 227.152 30.2836Z" fill="black"/>
</g>
<g opacity="0.2">
<path d="M225.769 43.6514C225.561 43.6526 225.354 43.6208 225.155 43.5573C223.888 43.1698 223.318 41.6587 223.296 41.5978C223.259 41.4812 223.268 41.3547 223.321 41.2445C223.375 41.1343 223.468 41.049 223.583 41.0062C223.698 40.9635 223.825 40.9666 223.937 41.0149C224.049 41.0632 224.139 41.153 224.187 41.2657C224.187 41.2657 224.624 42.4004 225.443 42.6495C225.692 42.701 225.951 42.6944 226.197 42.63C226.444 42.5657 226.672 42.4455 226.865 42.2786C226.916 42.2423 226.973 42.2163 227.034 42.2022C227.095 42.1881 227.158 42.1861 227.22 42.1964C227.281 42.2067 227.34 42.229 227.393 42.2621C227.446 42.2952 227.492 42.3384 227.529 42.3893C227.565 42.4402 227.591 42.4977 227.605 42.5587C227.619 42.6196 227.621 42.6827 227.611 42.7444C227.601 42.806 227.578 42.8651 227.545 42.9181C227.512 42.9712 227.469 43.0172 227.418 43.0535C226.945 43.4213 226.368 43.6305 225.769 43.6514Z" fill="black"/>
</g>
<g opacity="0.2">
<path d="M238.152 27.0122C237.298 26.937 236.499 26.558 235.9 25.9439C235.812 25.8529 235.764 25.7306 235.766 25.604C235.768 25.4773 235.82 25.3567 235.911 25.2686C236.002 25.1805 236.124 25.1322 236.251 25.1343C236.377 25.1364 236.498 25.1887 236.586 25.2797C236.586 25.2797 237.444 26.1321 238.285 26.0491C238.535 25.9962 238.769 25.8862 238.97 25.7278C239.17 25.5694 239.331 25.3668 239.441 25.1358C239.509 25.0336 239.614 24.9616 239.733 24.9349C239.853 24.9082 239.979 24.9287 240.083 24.9923C240.188 25.0558 240.265 25.1575 240.297 25.276C240.328 25.3946 240.313 25.5208 240.254 25.6284C240.074 25.9882 239.812 26.2999 239.487 26.5377C239.163 26.7755 238.787 26.9325 238.39 26.9956L238.152 27.0122Z" fill="black"/>
</g>
<path d="M258.987 43.7233C258.987 43.7233 254.406 42.6163 253.095 35.1215C253.095 35.1215 252.697 44.3046 233.504 43.3746L233.327 51.4728L228.9 45.1902C228.9 45.1902 233.327 28.2965 248.464 30.0124C250.89 30.36 253.19 31.3117 255.153 32.7801C257.567 34.5251 259.59 36.7563 261.091 39.3302C262.592 41.9042 263.537 44.7638 263.867 47.7254L264.066 49.3472C264.066 49.3472 260.791 44.0998 258.451 53.4987L258.987 43.7233Z" fill="#242424"/>
<g opacity="0.2">
<path d="M234.129 36.7268C233.358 36.6781 232.621 36.3897 232.021 35.902C231.931 35.8194 231.876 35.7051 231.867 35.5828C231.859 35.4605 231.898 35.3398 231.977 35.2456C232.055 35.1515 232.167 35.0912 232.288 35.0774C232.41 35.0636 232.532 35.0972 232.63 35.1713C232.63 35.1713 233.57 35.9407 234.406 35.7249C234.648 35.6443 234.868 35.5091 235.05 35.3295C235.231 35.15 235.368 34.9311 235.452 34.6898C235.508 34.5811 235.604 34.4984 235.72 34.4587C235.836 34.4191 235.962 34.4256 236.073 34.4769C236.184 34.5282 236.271 34.6204 236.316 34.7342C236.361 34.8481 236.361 34.9749 236.315 35.0883C236.176 35.4663 235.949 35.8056 235.652 36.078C235.356 36.3505 234.999 36.5482 234.611 36.6548C234.454 36.6979 234.292 36.7221 234.129 36.7268Z" fill="black"/>
</g>
<g opacity="0.2">
<path d="M247.347 36.4279C246.574 36.377 245.836 36.089 245.233 35.6031C245.138 35.5215 245.078 35.4057 245.066 35.2806C245.055 35.1555 245.093 35.0308 245.172 34.9333C245.252 34.8357 245.368 34.7739 245.493 34.7614C245.619 34.749 245.744 34.7869 245.842 34.8669C245.842 34.8669 246.793 35.6308 247.618 35.4204C247.86 35.3399 248.08 35.2046 248.261 35.0251C248.443 34.8456 248.58 34.6267 248.663 34.3853C248.72 34.2767 248.816 34.1939 248.932 34.1543C249.047 34.1147 249.174 34.1212 249.285 34.1725C249.396 34.2238 249.483 34.3159 249.528 34.4298C249.573 34.5436 249.573 34.6705 249.526 34.7839C249.388 35.1614 249.162 35.5006 248.867 35.773C248.571 36.0455 248.215 36.2434 247.828 36.3504C247.671 36.3947 247.509 36.4207 247.347 36.4279Z" fill="black"/>
</g>
<g opacity="0.2">
<path d="M268.465 51.4838C267.692 51.4345 266.954 51.1463 266.351 50.6591C266.261 50.5765 266.206 50.4621 266.197 50.3399C266.189 50.2176 266.228 50.0969 266.307 50.0027C266.385 49.9086 266.497 49.8483 266.618 49.8345C266.74 49.8207 266.862 49.8543 266.96 49.9284C266.96 49.9284 267.901 50.6868 268.736 50.482C268.978 50.4014 269.198 50.2661 269.38 50.0866C269.561 49.9071 269.699 49.6882 269.782 49.4469C269.835 49.3324 269.931 49.2437 270.049 49.2001C270.167 49.1565 270.298 49.1617 270.412 49.2144C270.469 49.24 270.521 49.2768 270.564 49.3226C270.606 49.3684 270.64 49.4222 270.661 49.481C270.683 49.5398 270.692 49.6023 270.69 49.6649C270.687 49.7274 270.672 49.7888 270.645 49.8454C270.507 50.223 270.281 50.5621 269.985 50.8346C269.69 51.107 269.334 51.305 268.946 51.4119C268.789 51.4518 268.627 51.4759 268.465 51.4838Z" fill="black"/>
</g>
<path d="M261.964 49.2254C261.742 46.7599 261.296 44.3198 260.631 41.9354C260.007 39.5932 259.043 37.3553 257.77 35.2931C256.552 33.2876 254.799 31.662 252.708 30.5991C250.598 29.6104 248.258 29.218 245.941 29.4644C243.586 29.6738 241.3 30.3728 239.229 31.5166C237.159 32.6603 235.35 34.2237 233.919 36.1067C232.464 38.0268 231.445 40.2404 230.931 42.5941C230.416 45.0028 230.268 47.4756 230.494 49.9284C229.875 47.4772 229.71 44.9332 230.007 42.4225C230.334 39.8461 231.259 37.382 232.707 35.2266C234.18 33.0525 236.117 31.2333 238.379 29.9007C240.642 28.568 243.172 27.7554 245.786 27.5215C247.104 27.4229 248.428 27.4824 249.731 27.6986C251.054 27.9067 252.334 28.3292 253.521 28.9496C255.867 30.2137 257.79 32.1382 259.054 34.4849C260.278 36.7294 261.123 39.1608 261.555 41.6808C262.003 44.169 262.141 46.7033 261.964 49.2254Z" fill="black"/>
<path d="M275.868 320.538C275.868 320.538 257.195 320.892 252.741 316.663V320.538H244.52C244.52 320.538 241.936 306.777 246.312 307.486C250.689 308.194 266.263 320.084 266.612 311.914L272.698 315.064C273.647 315.55 274.443 316.289 274.998 317.199C275.554 318.11 275.847 319.156 275.846 320.223L275.868 320.538Z" fill="#242424"/>
<path d="M182.238 320.538C182.238 320.538 200.911 320.892 205.365 316.663V320.538H213.586C213.586 320.538 216.17 306.777 211.794 307.486C207.417 308.194 191.848 320.084 191.494 311.914L185.408 315.064C184.46 315.551 183.665 316.29 183.109 317.2C182.554 318.111 182.26 319.156 182.26 320.223L182.238 320.538Z" fill="#242424"/>
<g opacity="0.2">
<path d="M254.429 138.427C254.327 138.427 254.227 138.395 254.145 138.334C254.064 138.273 254.004 138.187 253.975 138.089L253.577 136.766C253.553 136.705 253.541 136.64 253.544 136.574C253.546 136.508 253.562 136.444 253.591 136.385C253.619 136.325 253.66 136.273 253.71 136.23C253.759 136.187 253.818 136.155 253.88 136.136C253.943 136.117 254.009 136.111 254.075 136.119C254.14 136.126 254.203 136.147 254.26 136.181C254.316 136.214 254.365 136.258 254.404 136.311C254.443 136.365 254.47 136.425 254.484 136.489L254.899 137.857C254.935 137.978 254.923 138.108 254.864 138.22C254.805 138.332 254.704 138.416 254.584 138.454C254.531 138.452 254.479 138.443 254.429 138.427Z" fill="black"/>
<path d="M257.449 148.479C257.347 148.479 257.248 148.447 257.166 148.386C257.084 148.325 257.025 148.239 256.996 148.141L256.254 145.623C256.23 145.561 256.219 145.496 256.222 145.43C256.224 145.365 256.24 145.3 256.269 145.241C256.297 145.182 256.338 145.129 256.387 145.086C256.437 145.044 256.495 145.012 256.558 144.993C256.621 144.973 256.687 144.967 256.752 144.975C256.818 144.983 256.881 145.004 256.937 145.037C256.994 145.07 257.043 145.115 257.082 145.168C257.12 145.221 257.148 145.282 257.162 145.346L257.925 147.853C257.943 147.913 257.949 147.976 257.943 148.038C257.936 148.101 257.917 148.161 257.888 148.216C257.858 148.271 257.817 148.32 257.769 148.359C257.72 148.398 257.664 148.428 257.604 148.446C257.555 148.467 257.503 148.478 257.449 148.479ZM255.934 143.464C255.831 143.463 255.732 143.43 255.649 143.369C255.567 143.309 255.506 143.224 255.474 143.126L254.733 140.641C254.71 140.58 254.7 140.516 254.704 140.451C254.707 140.386 254.723 140.323 254.752 140.265C254.78 140.207 254.82 140.155 254.87 140.113C254.919 140.071 254.976 140.04 255.038 140.021C255.099 140.001 255.164 139.995 255.229 140.002C255.293 140.008 255.355 140.028 255.412 140.06C255.468 140.091 255.517 140.134 255.557 140.186C255.596 140.237 255.624 140.296 255.64 140.359L256.404 142.872C256.44 142.992 256.427 143.122 256.368 143.233C256.309 143.344 256.209 143.427 256.088 143.464C256.043 143.471 255.996 143.471 255.95 143.464H255.934Z" fill="black"/>
<path d="M258.639 152.354C258.537 152.354 258.438 152.321 258.356 152.261C258.274 152.2 258.214 152.114 258.185 152.016L257.771 150.649C257.734 150.528 257.747 150.397 257.806 150.285C257.866 150.174 257.968 150.09 258.089 150.054C258.21 150.017 258.34 150.03 258.452 150.09C258.563 150.149 258.647 150.251 258.683 150.372L259.098 151.739C259.117 151.799 259.123 151.862 259.117 151.925C259.111 151.987 259.093 152.048 259.063 152.103C259.033 152.158 258.992 152.207 258.943 152.246C258.894 152.285 258.838 152.314 258.777 152.331C258.733 152.347 258.686 152.355 258.639 152.354Z" fill="black"/>
</g>
<g opacity="0.2">
<path d="M266.158 96.7128C265.022 100.434 263.282 103.942 261.007 107.097C262.148 103.378 263.888 99.8709 266.158 96.7128Z" fill="black"/>
</g>
<g opacity="0.2">
<path d="M222.007 106.654C220.057 102.401 218.696 97.9021 217.963 93.2809C218.958 95.396 219.786 97.5854 220.442 99.8291C221.137 102.061 221.661 104.342 222.007 106.654Z" fill="black"/>
</g>
<path d="M338.875 139.335V296.559H317.862L315.123 159.444H309.64L299.133 296.559H278.12L287.255 139.335H338.875Z" fill="black"/>
<g opacity="0.2">
<path d="M284.742 82.2047C284.936 84.3579 285.03 86.5056 285.108 88.6589C285.185 90.8121 285.207 92.9653 285.218 95.113C285.229 97.2607 285.218 99.4195 285.108 101.573L284.975 104.8C284.897 105.874 284.848 106.953 284.742 108.027C284.632 106.953 284.587 105.874 284.51 104.8L284.377 101.573C284.289 99.4195 284.278 97.2663 284.267 95.113C284.255 92.9598 284.267 90.8121 284.377 88.6589C284.488 86.5056 284.56 84.3579 284.742 82.2047Z" fill="black"/>
</g>
<g opacity="0.2">
<path d="M340.473 83.345C340.711 87.2197 340.839 91.1497 340.955 95.0521C341.071 98.9545 341.099 102.862 341.182 106.765C341.265 110.667 341.22 114.575 341.182 118.478L341.11 124.334C341.049 126.288 341.021 128.242 340.933 130.196C340.805 128.242 340.739 126.293 340.639 124.339L340.44 118.5C340.33 114.592 340.291 110.689 340.219 106.787C340.147 102.885 340.175 98.9766 340.219 95.0743C340.263 91.1719 340.319 87.2529 340.473 83.345Z" fill="black"/>
</g>
<path d="M294.563 302.045C294.563 302.045 300.273 318.042 295.476 320.311H290.679C290.679 320.311 288.394 313.912 285.196 320.311H255.962C255.962 320.311 254.136 315.285 261.212 312.999C268.288 310.713 280.173 302.028 280.173 302.028L294.563 302.045Z" fill="black"/>
<path d="M295.476 296.559L294.563 302.045H280.172V296.559H295.476Z" fill="#B86A4B"/>
<path d="M321.397 302.045C321.397 302.045 315.687 318.042 320.484 320.311H325.281C325.281 320.311 327.566 313.912 330.764 320.311H359.999C359.999 320.311 361.824 315.285 354.742 312.999C347.661 310.713 335.787 302.028 335.787 302.028L321.397 302.045Z" fill="black"/>
<path d="M320.483 296.559L321.396 302.045H335.787V296.559H320.483Z" fill="#B86A4B"/>
<g opacity="0.2">
<path d="M308.317 159.057C309.845 158.718 311.406 158.558 312.97 158.581C314.535 158.555 316.097 158.715 317.623 159.057C316.096 159.394 314.534 159.552 312.97 159.527C311.407 159.549 309.845 159.391 308.317 159.057Z" fill="black"/>
</g>
<path d="M281.937 105.702L284.743 108.47L284.892 118.433C284.892 118.433 276.499 123.017 273.799 115.666L281.937 105.702Z" fill="#8C4D3E"/>
<path d="M232.11 64.7076H228.17V56.2497H232.11V64.7076ZM228.884 63.9936H231.396V56.9638H228.884V63.9936Z" fill="black"/>
<path d="M264.398 64.2538H260.459V55.7737H264.398V64.2538ZM261.173 63.5397H263.685V56.5043H261.173V63.5397Z" fill="black"/>
<path d="M261.167 56.5044V55.508H263.569C263.027 56.4358 262.177 57.1446 261.167 57.5118V56.5044Z" fill="#8C4D3E"/>
<path d="M231.446 58.0874V56.2275H229.183C229.694 57.0949 230.496 57.7536 231.446 58.0874Z" fill="#8C4D3E"/>
<path d="M71.1354 77.7544L72.347 80.6991C72.6322 81.3956 72.7311 82.1544 72.6341 82.9008C72.5371 83.6472 72.2475 84.3554 71.7938 84.9558C71.6073 85.2123 71.3899 85.4447 71.1464 85.6477C70.794 85.9567 70.3918 86.2037 69.9569 86.3784L65.6801 88.1441C65.5298 88.2072 65.3743 88.2572 65.2154 88.2936C64.9334 88.3888 64.6387 88.4411 64.3412 88.4486C63.4282 88.5211 62.5157 88.3011 61.7359 87.8205C60.9561 87.3399 60.3494 86.6235 60.0035 85.775L58.8251 82.8302C58.5617 82.1894 58.5636 81.4702 58.8303 80.8308C59.0969 80.1913 59.6065 79.684 60.247 79.4205L67.7438 76.3373C68.3817 76.0787 69.0958 76.0825 69.7309 76.3478C70.366 76.6132 70.8708 77.1187 71.1354 77.7544Z" fill="#FED4C0"/>
<path d="M71.8162 84.9558C71.6298 85.2123 71.4124 85.4447 71.1689 85.6477L68.7843 80.046C68.7395 79.9403 68.7386 79.8211 68.7816 79.7147C68.8247 79.6083 68.9082 79.5234 69.0139 79.4786C69.1195 79.4338 69.2386 79.4329 69.345 79.476C69.4513 79.519 69.5362 79.6026 69.581 79.7083L71.8162 84.9558Z" fill="#F9C0AA"/>
<path d="M69.7249 86.489L68.9226 86.8156L66.4606 81.0644C66.4279 80.9605 66.4352 80.8482 66.4809 80.7494C66.5267 80.6506 66.6077 80.5724 66.708 80.5302C66.8084 80.488 66.9208 80.4847 67.0234 80.5211C67.126 80.5574 67.2114 80.6308 67.2628 80.7268L69.7249 86.489Z" fill="#F9C0AA"/>
<path d="M67.3625 87.4577L66.5548 87.7898L64.1591 82.1715C64.1181 82.0678 64.1189 81.9522 64.1612 81.8491C64.2035 81.7459 64.284 81.6631 64.3859 81.618C64.4897 81.5784 64.6047 81.5798 64.7074 81.622C64.8102 81.6641 64.8931 81.7438 64.9392 81.8449L67.3625 87.4577Z" fill="#F9C0AA"/>
<path d="M65.2378 88.2935C64.9558 88.3888 64.6611 88.4411 64.3636 88.4485L61.9016 82.6697C61.8616 82.5665 61.8623 82.4521 61.9033 82.3493C61.9444 82.2466 62.0229 82.1633 62.1229 82.1162C62.2271 82.074 62.3437 82.0748 62.4474 82.1184C62.551 82.1619 62.6332 82.2447 62.6762 82.3486L65.2378 88.2935Z" fill="#F9C0AA"/>
<path d="M267.099 81.7398L265.865 84.679C265.574 85.3722 265.109 85.9783 264.515 86.4381C263.92 86.8979 263.217 87.1958 262.473 87.3027C262.16 87.3479 261.843 87.3572 261.527 87.3304C261.06 87.2975 260.602 87.1871 260.172 87.0038L255.906 85.2159C255.484 85.0296 255.093 84.7815 254.744 84.4797C254.045 83.8818 253.555 83.0762 253.345 82.1802C253.135 81.2842 253.216 80.3445 253.577 79.498L254.81 76.5587C255.079 75.9216 255.589 75.417 256.229 75.1555C256.869 74.894 257.586 74.897 258.224 75.1638L265.699 78.3024C266.017 78.4348 266.307 78.6291 266.55 78.874C266.793 79.1189 266.985 79.4095 267.115 79.7291C267.245 80.0488 267.311 80.391 267.308 80.7361C267.305 81.0812 267.234 81.4223 267.099 81.7398Z" fill="#FED4C0"/>
<path d="M262.473 87.3027C262.16 87.3479 261.843 87.3572 261.527 87.3304L263.812 81.6844C263.856 81.578 263.939 81.4931 264.045 81.4485C264.151 81.4038 264.27 81.4031 264.377 81.4464C264.483 81.4897 264.568 81.5735 264.613 81.6794C264.657 81.7853 264.658 81.9045 264.615 82.011L262.473 87.3027Z" fill="#F9C0AA"/>
<path d="M259.917 86.8987L259.109 86.561L261.45 80.7601C261.494 80.6571 261.576 80.5752 261.679 80.5319C261.783 80.4885 261.899 80.4869 262.003 80.5276C262.055 80.5477 262.103 80.5781 262.144 80.617C262.184 80.6559 262.216 80.7026 262.239 80.7541C262.261 80.8057 262.272 80.8612 262.273 80.9174C262.273 80.9735 262.262 81.0292 262.241 81.0811L259.917 86.8987Z" fill="#F9C0AA"/>
<path d="M257.555 85.9078L256.752 85.5702L259.049 79.9076C259.068 79.8546 259.098 79.8063 259.137 79.7655C259.176 79.7248 259.223 79.6924 259.274 79.6706C259.326 79.6488 259.382 79.6379 259.439 79.6387C259.495 79.6395 259.55 79.6519 259.602 79.6751C259.704 79.7203 259.785 79.8025 259.829 79.9051C259.873 80.0078 259.877 80.1233 259.84 80.2286L257.555 85.9078Z" fill="#F9C0AA"/>
<path d="M255.469 84.9945C255.205 84.857 254.961 84.6838 254.744 84.4797L257.101 78.6455C257.144 78.5414 257.226 78.458 257.329 78.4126C257.432 78.3673 257.549 78.3634 257.654 78.402C257.759 78.4438 257.843 78.5257 257.888 78.6295C257.932 78.7333 257.934 78.8505 257.892 78.9555L255.469 84.9945Z" fill="#F9C0AA"/>
<path d="M339.19 61.0544L337.956 63.9881C337.666 64.6819 337.201 65.2885 336.607 65.7485C336.012 66.2084 335.308 66.5059 334.564 66.6118C334.252 66.6625 333.934 66.6718 333.618 66.6395C333.152 66.6085 332.694 66.5 332.263 66.3184L327.997 64.525C327.844 64.4669 327.697 64.3927 327.56 64.3036C327.295 64.17 327.051 63.9984 326.835 63.7943C326.137 63.1959 325.647 62.3903 325.437 61.4945C325.227 60.5987 325.308 59.6593 325.668 58.8126L326.902 55.8789C327.17 55.2417 327.68 54.7371 328.32 54.4756C328.96 54.2142 329.678 54.2172 330.315 54.484L337.79 57.6225C338.108 57.755 338.396 57.9491 338.639 58.1935C338.882 58.438 339.073 58.7281 339.203 59.0471C339.334 59.366 339.399 59.7076 339.397 60.0521C339.395 60.3966 339.324 60.7372 339.19 61.0544Z" fill="#8C4D3E"/>
<path d="M334.564 66.6118C334.251 66.6625 333.933 66.6718 333.618 66.6395L335.903 60.9935C335.946 60.8895 336.028 60.8068 336.132 60.7632C336.236 60.7197 336.352 60.7189 336.456 60.761C336.561 60.803 336.646 60.8845 336.691 60.988C336.737 61.0915 336.74 61.2087 336.7 61.3145L334.564 66.6118Z" fill="#874032"/>
<path d="M332.008 66.2077L331.206 65.8756L333.546 60.0691C333.592 59.967 333.674 59.8861 333.777 59.8428C333.88 59.7996 333.995 59.7974 334.1 59.8366C334.203 59.8807 334.284 59.963 334.328 60.0663C334.371 60.1696 334.373 60.2857 334.332 60.3901L332.008 66.2077Z" fill="#874032"/>
<path d="M329.646 65.2224L328.849 64.8848L331.14 59.2222C331.16 59.1697 331.19 59.1219 331.229 59.0814C331.268 59.0409 331.315 59.0086 331.366 58.9864C331.418 58.9642 331.473 58.9526 331.529 58.9522C331.585 58.9518 331.641 58.9627 331.693 58.9841C331.797 59.0272 331.88 59.1091 331.924 59.2125C331.969 59.3159 331.971 59.4326 331.931 59.5377L329.646 65.2224Z" fill="#874032"/>
<path d="M327.56 64.3036C327.295 64.17 327.051 63.9984 326.835 63.7943L329.192 57.9712C329.235 57.8671 329.317 57.7837 329.42 57.7383C329.523 57.693 329.639 57.6891 329.745 57.7277C329.798 57.7478 329.845 57.7782 329.886 57.8171C329.926 57.856 329.959 57.9026 329.981 57.9542C330.003 58.0058 330.015 58.0613 330.015 58.1175C330.015 58.1736 330.005 58.2293 329.983 58.2812L327.56 64.3036Z" fill="#874032"/>
<path d="M231.379 74.2173L232.525 77.1898C232.796 77.8902 232.881 78.6492 232.772 79.3924C232.662 80.1356 232.362 80.8377 231.899 81.4298C231.707 81.6815 231.484 81.9083 231.236 82.1051C230.877 82.4063 230.472 82.6457 230.035 82.8136L225.714 84.4742C225.563 84.5337 225.408 84.58 225.249 84.6126C224.964 84.6994 224.668 84.746 224.369 84.751C223.455 84.8024 222.549 84.562 221.78 84.0646C221.011 83.5672 220.421 82.8384 220.093 81.9833L218.947 79.0109C218.824 78.6911 218.766 78.3501 218.774 78.0075C218.783 77.665 218.859 77.3275 218.999 77.0144C219.138 76.7013 219.337 76.4187 219.586 76.1829C219.834 75.947 220.127 75.7625 220.447 75.6399L228.01 72.7228C228.329 72.5995 228.67 72.5404 229.012 72.5488C229.354 72.5572 229.691 72.633 230.004 72.7718C230.317 72.9106 230.599 73.1097 230.835 73.3577C231.071 73.6057 231.256 73.8978 231.379 74.2173Z" fill="#B86A4B"/>
<path d="M231.9 81.4519C231.707 81.7036 231.484 81.9304 231.236 82.1272L228.973 76.4757C228.933 76.3706 228.935 76.2539 228.979 76.1505C229.024 76.0471 229.107 75.9652 229.211 75.9221C229.316 75.8833 229.432 75.8863 229.535 75.9306C229.638 75.9749 229.72 76.0571 229.764 76.1601L231.9 81.4519Z" fill="#B2593D"/>
<path d="M229.786 82.9354L228.973 83.2509L226.643 77.4444C226.605 77.3378 226.61 77.2206 226.656 77.1173C226.703 77.0141 226.787 76.9329 226.892 76.8908C226.945 76.8703 227 76.8603 227.057 76.8614C227.113 76.8625 227.168 76.8748 227.22 76.8974C227.271 76.9201 227.317 76.9527 227.356 76.9933C227.395 77.034 227.425 77.0819 227.446 77.1344L229.786 82.9354Z" fill="#B2593D"/>
<path d="M227.39 83.8542L226.577 84.1697L224.308 78.496C224.287 78.4441 224.276 78.3885 224.276 78.3323C224.277 78.2762 224.288 78.2207 224.311 78.1691C224.333 78.1175 224.365 78.0709 224.405 78.032C224.446 77.993 224.494 77.9626 224.546 77.9425C224.651 77.9036 224.767 77.9067 224.87 77.951C224.973 77.9953 225.055 78.0775 225.099 78.1805L227.39 83.8542Z" fill="#B2593D"/>
<path d="M225.249 84.6403C224.964 84.7271 224.668 84.7737 224.37 84.7787L222.04 78.9445C222.003 78.8392 222.007 78.7236 222.051 78.621C222.095 78.5183 222.176 78.4361 222.278 78.3909C222.385 78.3513 222.502 78.3552 222.606 78.4018C222.71 78.4484 222.791 78.534 222.831 78.64L225.249 84.6403Z" fill="#B2593D"/>
</svg>
