<svg width="110" height="25" viewBox="0 0 50 15" fill="none" xmlns="http://www.w3.org/2000/svg">
<path d="M10.6503 4.75196C10.7741 4.85792 10.8841 4.97897 10.9778 5.1123C11.1928 5.41817 11.2868 5.72667 11.3238 5.85467C11.3729 6.0245 11.4068 6.19398 11.4315 6.34048C11.4813 6.63611 11.5156 6.97373 11.5402 7.31022C11.5898 7.99083 11.609 8.80833 11.6013 9.57728C11.5954 10.1698 11.3204 10.7276 10.8539 11.093C10.3874 11.4584 9.78004 11.5919 9.20331 11.4557C8.22951 11.2257 7.15344 10.9447 6.27486 10.6872C5.83823 10.5593 5.42836 10.4308 5.09605 10.3122C4.93181 10.2536 4.76158 10.1886 4.60592 10.1193C4.60421 10.1185 4.60243 10.1177 4.60058 10.1169C4.50167 10.0729 4.20432 9.94065 3.93709 9.71159C3.81251 9.60481 3.7019 9.48272 3.60789 9.34823C3.39435 9.04274 3.30109 8.7349 3.26451 8.60765C3.21584 8.43841 3.18216 8.26944 3.15763 8.12325C3.10812 7.82824 3.07386 7.4911 3.04937 7.15478C2.99984 6.47456 2.98048 5.65717 2.98814 4.88776C2.99404 4.29528 3.269 3.73762 3.73541 3.3722C4.20181 3.00678 4.80906 2.87323 5.38574 3.00927C6.35981 3.23904 7.43569 3.52003 8.31406 3.77744C8.75059 3.90537 9.16033 4.03387 9.49257 4.15245C9.65678 4.21106 9.82692 4.27603 9.98251 4.34529L9.98773 4.34762C10.0867 4.39163 10.3834 4.5236 10.6503 4.75196Z" fill="white" stroke="#231616" stroke-width="3.9" stroke-linejoin="round"/>
<path d="M7.30205 -6.10352e-05C3.26934 -6.10352e-05 0 3.26973 0 7.30244C0 11.3352 3.26934 14.6045 7.30205 14.6045C11.3357 14.6045 14.6046 11.3352 14.6046 7.30244C14.6046 3.26973 11.3357 -6.10352e-05 7.30205 -6.10352e-05ZM12.2245 10.0065C12.0368 10.072 10.9322 9.85975 9.65125 9.55804C9.63852 10.8135 9.54855 11.9758 9.38225 12.1299C8.91786 12.2921 2.82858 10.7517 2.36374 10.3541C2.00431 9.84067 2.00431 4.79103 2.36465 4.45796C2.55231 4.39298 3.65648 4.60518 4.93786 4.90735C4.95058 3.65096 5.0401 2.48863 5.20686 2.33505C5.67124 2.17329 11.7592 3.71276 12.2245 4.1099C12.5862 4.62563 12.5852 9.67481 12.2245 10.0065Z" fill="white"/>
<path d="M26.9232 3.16389C25.1447 3.16389 23.7329 4.12311 23.7329 6.62362V7.90636C23.7329 10.4069 25.1447 11.3661 26.9232 11.3661C28.7021 11.3661 30.1135 10.4069 30.1135 7.90636V6.62362C30.1135 4.12311 28.7021 3.16389 26.9232 3.16389ZM28.2595 7.90636C28.2595 9.19956 27.8288 9.74937 26.9232 9.74937C26.0185 9.74937 25.5977 9.19956 25.5977 7.90636V6.62362C25.5977 5.33042 26.0185 4.78107 26.9232 4.78107C27.8288 4.78107 28.2595 5.33042 28.2595 6.62362V7.90636Z" fill="white"/>
<path d="M23.0867 3.26087H17.7408C17.6222 3.26087 17.5254 3.34675 17.5254 3.4658V4.57542C17.5254 4.69447 17.6222 4.78081 17.7408 4.78081H19.4974V11.0532C19.4974 11.1723 19.5947 11.269 19.7128 11.269H21.1251C21.2432 11.269 21.3405 11.1723 21.3405 11.0532V4.78081H23.0867C23.2053 4.78081 23.313 4.69447 23.313 4.57542V3.4658C23.313 3.34675 23.2053 3.26087 23.0867 3.26087Z" fill="white"/>
<path d="M36.0949 3.26087H30.749C30.6309 3.26087 30.5332 3.34675 30.5332 3.4658V4.57542C30.5332 4.69447 30.6309 4.78081 30.749 4.78081H32.5062V11.0532C32.5062 11.1723 32.603 11.269 32.7215 11.269H34.1333C34.2519 11.269 34.3487 11.1723 34.3487 11.0532V4.78081H36.0949C36.2131 4.78081 36.3212 4.69447 36.3212 4.57542V3.4658C36.3212 3.34675 36.2131 3.26087 36.0949 3.26087Z" fill="white"/>
<path d="M43.4996 3.26092H41.991C41.8833 3.26092 41.8074 3.3468 41.7865 3.45495L40.4388 9.67418C40.417 9.79233 40.3847 9.83504 40.2875 9.83504C40.1903 9.83504 40.1589 9.79233 40.1366 9.67418L38.7894 3.45495C38.768 3.3468 38.6817 3.26092 38.5744 3.26092H37.0759C36.9682 3.26092 36.8818 3.33635 36.8818 3.43314C36.8818 3.45495 36.8923 3.46585 36.8923 3.48721L38.4986 10.1695C38.7467 11.2046 39.5441 11.3663 40.2875 11.3663C41.0318 11.3663 41.8183 11.2046 42.0664 10.1695L43.6722 3.48721C43.6722 3.46585 43.6831 3.44404 43.6831 3.43314C43.6831 3.32544 43.6073 3.26092 43.4996 3.26092Z" fill="white"/>
<path d="M48.1981 6.81764L46.8186 6.07381C46.2369 5.76119 46.097 5.62123 46.097 5.31906C46.097 4.93147 46.3233 4.74835 46.9376 4.74835C47.6701 4.74835 48.921 4.84559 49.2227 4.86695H49.2441C49.384 4.86695 49.4272 4.78107 49.4272 4.68383V3.59511C49.4272 3.47651 49.3513 3.42244 49.2654 3.40108C48.856 3.29339 47.7673 3.16389 46.9812 3.16389C44.8892 3.16389 44.2222 4.07994 44.2222 5.2659C44.2222 6.05245 44.4912 6.73176 45.4936 7.32429L46.9812 8.20808C47.5406 8.54205 47.6919 8.71427 47.6919 9.02734C47.6919 9.54444 47.4765 9.78163 46.7327 9.78163C46.3124 9.78163 45.1269 9.6953 44.6856 9.65258H44.6529C44.5448 9.65258 44.4589 9.7062 44.4589 9.85706V10.9135C44.4589 11.0317 44.5666 11.0966 44.6743 11.1289C45.2241 11.2688 45.8602 11.3661 46.7118 11.3661C48.8992 11.3661 49.6535 10.1483 49.6535 9.00553C49.6535 8.13265 49.3195 7.42107 48.1981 6.81764Z" fill="white"/>
</svg>
