<svg width="34" height="34" viewBox="0 0 34 34" fill="none" xmlns="http://www.w3.org/2000/svg">
<rect width="34" height="34" rx="2" fill="black"/>
<path d="M20.9877 14.9513C20.4562 14.4965 16.0934 13.2638 12.4668 12.4083C12.4389 15.2083 12.6105 18.2512 12.9808 18.7809C13.5113 19.2357 17.8767 20.4684 21.5034 21.3247C21.5313 18.5257 21.3605 15.4818 20.9877 14.9513Z" fill="#FCFCFC"/>
<path d="M16.9996 2.9999C9.26803 2.9999 3 9.2688 3 17.0004C3 24.732 9.26803 31 16.9996 31C24.7329 31 31.0001 24.732 31.0001 17.0004C31.0001 9.2688 24.7329 2.9999 16.9996 2.9999ZM26.4369 22.1847C26.0771 22.3101 23.9593 21.9033 21.5035 21.3248C21.4791 23.7319 21.3067 25.9603 20.9878 26.2556C20.0975 26.5666 8.423 23.6134 7.5318 22.8511C6.84271 21.8667 6.84271 12.1855 7.53354 11.5469C7.89333 11.4223 10.0103 11.8292 12.4669 12.4085C12.4913 9.99971 12.663 7.77127 12.9827 7.47682C13.873 7.16668 25.5449 10.1182 26.4369 10.8796C27.1304 11.8684 27.1286 21.5487 26.4369 22.1847Z" fill="#FCFCFC"/>
</svg>
