<svg width="20" height="27" viewBox="0 0 27 27" fill="none" xmlns="http://www.w3.org/2000/svg">
<path d="M17.3453 11.5243C16.8329 11.0858 12.6259 9.89717 9.12879 9.07224C9.10191 11.7722 9.2674 14.7065 9.62442 15.2172C10.136 15.6557 14.3455 16.8444 17.8426 17.6702C17.8695 14.9711 17.7049 12.0359 17.3453 11.5243Z" fill="black"/>
<path d="M13.4996 -9.53091e-05C6.04417 -9.53091e-05 0 6.04491 0 13.5004C0 20.9558 6.04417 27 13.4996 27C20.9568 27 27.0001 20.9558 27.0001 13.5004C27.0001 6.04491 20.9568 -9.53091e-05 13.4996 -9.53091e-05ZM22.5999 18.4995C22.253 18.6205 20.2108 18.2282 17.8427 17.6704C17.8192 19.9915 17.6528 22.1403 17.3454 22.4251C16.4869 22.725 5.22932 19.8772 4.36995 19.1422C3.70547 18.1929 3.70547 8.85741 4.37163 8.24165C4.71857 8.12152 6.75989 8.51383 9.12884 9.07246C9.15236 6.74972 9.31785 4.60087 9.62615 4.31693C10.4847 4.01787 21.7397 6.86397 22.5999 7.59817C23.2686 8.55163 23.2669 17.8863 22.5999 18.4995Z" fill="black"/>
</svg>
