<svg width="54" height="14" viewBox="0 0 40 12" fill="none" xmlns="http://www.w3.org/2000/svg">
<path d="M7.45501 4.95303C7.23477 4.76457 5.42663 4.25368 3.92357 3.89913C3.91202 5.05954 3.98315 6.3207 4.13659 6.54021C4.35647 6.72868 6.1657 7.23957 7.66875 7.59448C7.68031 6.43443 7.60954 5.17291 7.45501 4.95303Z" fill="black"/>
<path d="M5.80209 -4.06612e-05C2.59776 -4.06612e-05 0 2.59808 0 5.80241C0 9.00673 2.59776 11.6045 5.80209 11.6045C9.00713 11.6045 11.6045 9.00673 11.6045 5.80241C11.6045 2.59808 9.00713 -4.06612e-05 5.80209 -4.06612e-05ZM9.71335 7.95102C9.56424 8.00301 8.68652 7.8344 7.66872 7.59466C7.65861 8.59225 7.58712 9.51581 7.45498 9.63821C7.08598 9.76711 2.24754 8.54314 1.87819 8.22722C1.59259 7.81924 1.59259 3.80688 1.87891 3.54223C2.02802 3.4906 2.90538 3.65921 3.92354 3.89931C3.93365 2.901 4.00478 1.97743 4.13728 1.8554C4.50627 1.72687 9.34363 2.95011 9.71335 3.26566C10.0007 3.67546 10 7.68745 9.71335 7.95102Z" fill="black"/>
<path d="M21.3928 2.51392C19.9797 2.51392 18.8579 3.2761 18.8579 5.26296V6.28221C18.8579 8.26907 19.9797 9.03125 21.3928 9.03125C22.8064 9.03125 23.9278 8.26907 23.9278 6.28221V5.26296C23.9278 3.2761 22.8064 2.51392 21.3928 2.51392ZM22.4547 6.28221C22.4547 7.30976 22.1124 7.74663 21.3928 7.74663C20.674 7.74663 20.3397 7.30976 20.3397 6.28221V5.26296C20.3397 4.23541 20.674 3.7989 21.3928 3.7989C22.1124 3.7989 22.4547 4.23541 22.4547 5.26296V6.28221Z" fill="black"/>
<path d="M18.3444 2.59106H14.0967C14.0024 2.59106 13.9255 2.6593 13.9255 2.7539V3.63558C13.9255 3.73018 14.0024 3.79878 14.0967 3.79878H15.4925V8.78272C15.4925 8.87732 15.5698 8.95422 15.6636 8.95422H16.7858C16.8797 8.95422 16.9569 8.87732 16.9569 8.78272V3.79878H18.3444C18.4387 3.79878 18.5242 3.73018 18.5242 3.63558V2.7539C18.5242 2.6593 18.4387 2.59106 18.3444 2.59106Z" fill="black"/>
<path d="M28.6805 2.59106H24.4327C24.3389 2.59106 24.2612 2.6593 24.2612 2.7539V3.63558C24.2612 3.73018 24.3389 3.79878 24.4327 3.79878H25.8289V8.78272C25.8289 8.87732 25.9058 8.95422 26.0001 8.95422H27.1218C27.2161 8.95422 27.293 8.87732 27.293 8.78272V3.79878H28.6805C28.7744 3.79878 28.8603 3.73018 28.8603 3.63558V2.7539C28.8603 2.6593 28.7744 2.59106 28.6805 2.59106Z" fill="black"/>
<path d="M34.5643 2.59107H33.3656C33.28 2.59107 33.2197 2.65931 33.2031 2.74524L32.1322 7.68694C32.1149 7.78081 32.0892 7.81475 32.012 7.81475C31.9347 7.81475 31.9098 7.78081 31.8921 7.68694L30.8216 2.74524C30.8046 2.65931 30.736 2.59107 30.6508 2.59107H29.4601C29.3745 2.59107 29.3059 2.651 29.3059 2.72791C29.3059 2.74524 29.3142 2.7539 29.3142 2.77087L30.5905 8.08049C30.7877 8.90296 31.4213 9.03149 32.012 9.03149C32.6034 9.03149 33.2284 8.90296 33.4255 8.08049L34.7015 2.77087C34.7015 2.7539 34.7101 2.73657 34.7101 2.72791C34.7101 2.64234 34.6498 2.59107 34.5643 2.59107Z" fill="black"/>
<path d="M38.2976 5.41713L37.2015 4.82609C36.7393 4.57769 36.6281 4.46648 36.6281 4.22639C36.6281 3.91841 36.8079 3.77291 37.2961 3.77291C37.8781 3.77291 38.8721 3.85017 39.1118 3.86714H39.1288C39.24 3.86714 39.2743 3.7989 39.2743 3.72164V2.85656C39.2743 2.76232 39.214 2.71936 39.1457 2.70239C38.8204 2.61682 37.9553 2.51392 37.3307 2.51392C35.6685 2.51392 35.1384 3.2418 35.1384 4.18414C35.1384 4.80912 35.3522 5.34889 36.1486 5.8197L37.3307 6.52195C37.7752 6.78732 37.8954 6.92416 37.8954 7.17292C37.8954 7.5838 37.7243 7.77227 37.1332 7.77227C36.7993 7.77227 35.8573 7.70367 35.5067 7.66973H35.4807C35.3948 7.66973 35.3265 7.71233 35.3265 7.8322V8.67164C35.3265 8.76552 35.4121 8.81715 35.4977 8.84278C35.9345 8.95399 36.44 9.03125 37.1166 9.03125C38.8547 9.03125 39.4541 8.06363 39.4541 7.15559C39.4541 6.46201 39.1887 5.89661 38.2976 5.41713Z" fill="black"/>
</svg>
